<?xml version="1.0" encoding="UTF-8" standalone="yes"?>
<svg
   xmlns="http://www.w3.org/2000/svg"
   xmlns:xlink="http://www.w3.org/1999/xlink"
   width="245"
   height="67"
   version="1.1">
  <defs>
    <radialGradient id="radioGradient" cx="0.25" cy="0.22" r="0.7" >
      <stop style="stop-color:#fefefe" offset="0" />
      <stop style="stop-color:#f4f4f4" offset="1" />
	</radialGradient>
    <radialGradient id="textGradient" cx="0.12" cy="0.4" r="0.85" >
      <stop style="stop-color:#666666" offset="0" />
      <stop style="stop-color:#474747" offset="1" />
	</radialGradient>
    <filter
       id="shadowFilter"
       x="-0.028480269" y="-0.15256372"
       width="1.0569605" height="1.3051274">
      <feGaussianBlur stdDeviation="2" />
    </filter>
	<path id="radio" d="m 6.5138374,27.989452 8.0433406,8.043339 c 18.325018,-18.325018 48.05463,-18.325018 66.379644,0 l 8.02125,-8.021242 C 66.195048,5.2485278 29.276859,5.2264307 6.5138374,27.989452 z m 16.3518446,16.351844 8.04334,8.04334 c 9.30108,-9.301081 24.37488,-9.301081 33.67596,0 l 8.04334,-8.04334 c -13.739083,-13.739083 -36.023557,-13.739083 -49.76264,0 z" />
	<path id="reedr" d="m 203.4375,10.67468 -11.125,1.75002 0,1.5 c 1.53079,0 2.66566,0.1239 3.4375,0.4062 0.77181,0.2824 1.22089,0.7315 1.34375,1.3438 0.088,0.4006 0.17473,1.2376 0.21875,2.4687 0.044,1.2311 0.0625,2.695 0.0625,4.4375 l 0,3.75 -0.1875,0 c -0.83601,-1.045 -1.82478,-1.799 -2.96875,-2.25 -1.144,-0.451 -2.42303,-0.6672 -3.875,-0.6562 -3.2358,0.074 -5.90995,1.2625 -7.96875,3.5312 -2.05881,2.2687 -3.11967,5.1779 -3.1875,8.75 0.0568,3.5576 1.11769,6.4278 3.1875,8.5938 2.06979,2.1661 4.81795,3.2841 8.21875,3.3437 1.58763,-9e-4 3.05134,-0.2983 4.375,-0.8437 1.32363,-0.5454 2.48433,-1.3586 3.5,-2.4375 l 0.1875,0 0,3.2812 8.34375,-0.5 0,-1.7187 c -1.21643,0.021 -2.03887,-0.075 -2.46875,-0.3125 -0.42994,-0.2374 -0.68686,-0.751 -0.78125,-1.5 -0.10911,-0.5912 -0.20144,-1.4951 -0.25,-2.7188 -0.0486,-1.2237 -0.0634,-2.9092 -0.0625,-5.0625 l 0,-25.15622 z m -89.5,12.75002 -8.78125,1.625 0,1.5625 c 1.72973,-0.1073 2.84975,0.342 3.375,1.4062 0.52524,1.0643 0.77099,3.3836 0.71875,6.9063 l 0,5.3437 c 0.0596,2.145 -0.1511,3.5293 -0.625,4.1563 -0.47392,0.627 -1.59011,0.967 -3.3125,1 l 0,1.75 14.71875,0 0,-1.75 c -1.98457,0.053 -3.28194,-0.2259 -3.875,-0.8438 -0.59309,-0.6178 -0.87393,-2.0279 -0.8125,-4.2187 l 0,-2.0938 c 0.003,-1.0935 0.0785,-2.1932 0.21875,-3.2812 0.14023,-1.0881 0.34899,-2.0732 0.59375,-2.9688 0.31807,-1.2466 0.71916,-2.25 1.21875,-2.9687 0.49957,-0.7186 1.03366,-1.0791 1.59375,-1.0938 0.58573,0.073 1.14024,0.3617 1.6875,0.875 0.54723,0.5134 1.25325,0.833 2.125,0.9063 0.93497,-0.021 1.67973,-0.3482 2.21875,-0.9688 0.53897,-0.6205 0.83272,-1.4079 0.84375,-2.375 -0.0174,-0.8736 -0.37961,-1.5869 -1.0625,-2.125 -0.68293,-0.5381 -1.61061,-0.8281 -2.75,-0.8437 -1.45291,0.018 -2.79112,0.4767 -4.0625,1.375 -1.27142,0.8983 -2.31011,2.1292 -3.125,3.6875 l -0.1875,0 -0.71875,-5.0625 z m 26.28125,0 c -3.76012,0.063 -6.79662,1.2423 -9.09375,3.5 -2.29714,2.2577 -3.46709,5.2131 -3.53125,8.9062 0.0532,3.5521 1.16761,6.4038 3.34375,8.5313 2.17614,2.1276 5.08887,3.2271 8.75,3.2812 1.99738,0 3.81784,-0.3807 5.46875,-1.125 1.65088,-0.7443 3.17183,-1.8698 4.53125,-3.4062 l -1.25,-1.5625 c -1.14767,1.0385 -2.31761,1.826 -3.53125,2.375 -1.21367,0.5491 -2.45187,0.8391 -3.6875,0.8437 -2.1569,-0.031 -3.83511,-0.8831 -5.0625,-2.5312 -1.22741,-1.6482 -1.85209,-3.8901 -1.875,-6.7813 -9.2e-4,-0.3492 0.005,-0.6413 0.0312,-0.875 0.0266,-0.2338 0.0911,-0.4425 0.15625,-0.5937 l 14.15625,0 c 0.65721,0.016 1.08223,-0.035 1.25,-0.1563 0.16772,-0.1219 0.21222,-0.3973 0.1875,-0.8437 -0.0229,-3.0158 -0.88238,-5.3685 -2.59375,-7.0313 -1.71141,-1.6628 -4.12514,-2.5073 -7.25,-2.5312 z m 25.78125,0 c -3.76012,0.063 -6.79662,1.2423 -9.09375,3.5 -2.29714,2.2577 -3.46709,5.2131 -3.53125,8.9062 0.0532,3.5521 1.16761,6.4038 3.34375,8.5313 2.17614,2.1276 5.08887,3.2271 8.75,3.2812 1.99738,0 3.81784,-0.3807 5.46875,-1.125 1.65088,-0.7443 3.17183,-1.8698 4.53125,-3.4062 l -1.25,-1.5625 c -1.14767,1.0385 -2.31761,1.826 -3.53125,2.375 -1.21367,0.5491 -2.45187,0.8391 -3.6875,0.8437 -2.1569,-0.031 -3.83511,-0.8831 -5.0625,-2.5312 -1.22741,-1.6482 -1.85209,-3.8901 -1.875,-6.7813 -9.2e-4,-0.3492 0.005,-0.6413 0.0312,-0.875 0.0266,-0.2338 0.0911,-0.4425 0.15625,-0.5937 l 14.15625,0 c 0.65721,0.016 1.08223,-0.035 1.25,-0.1563 0.16772,-0.1219 0.21222,-0.3973 0.1875,-0.8437 -0.0229,-3.0158 -0.88238,-5.3685 -2.59375,-7.0313 -1.71141,-1.6628 -4.12514,-2.5073 -7.25,-2.5312 z m 51.9375,0 -8.8125,1.625 0,1.5625 c 1.72972,-0.1073 2.88101,0.342 3.40625,1.4062 0.52524,1.0643 0.73975,3.3836 0.6875,6.9063 l 0,5.3437 c 0.0596,2.145 -0.15109,3.5293 -0.625,4.1563 -0.47391,0.627 -1.55885,0.967 -3.28125,1 l 0,1.75 14.6875,0 0,-1.75 c -1.98458,0.053 -3.28193,-0.2259 -3.875,-0.8438 -0.59308,-0.6178 -0.84268,-2.0279 -0.78125,-4.2187 l 0,-2.0938 c 0.003,-1.0935 0.0785,-2.1932 0.21875,-3.2812 0.14024,-1.0881 0.31774,-2.0732 0.5625,-2.9688 0.31806,-1.2466 0.75041,-2.25 1.25,-2.9687 0.49956,-0.7186 1.00241,-1.0791 1.5625,-1.0938 0.58573,0.073 1.17149,0.3617 1.71875,0.875 0.54722,0.5134 1.25324,0.833 2.125,0.9063 0.93497,-0.021 1.67974,-0.3482 2.21875,-0.9688 0.53897,-0.6205 0.80148,-1.4079 0.8125,-2.375 -0.0174,-0.8736 -0.37961,-1.5869 -1.0625,-2.125 -0.68292,-0.5381 -1.57937,-0.8281 -2.71875,-0.8437 -1.45292,0.018 -2.82236,0.4767 -4.09375,1.375 -1.27141,0.8983 -2.3101,2.1292 -3.125,3.6875 l -0.1875,0 -0.6875,-5.0625 z m -77.90625,2.5625 c 1.14305,0.024 2.07266,0.4452 2.78125,1.25 0.70856,0.8048 1.07265,1.8564 1.09375,3.1562 0.033,0.4904 -0.13702,0.7936 -0.5,0.9375 -0.36301,0.1439 -1.09503,0.2031 -2.25,0.1875 l -6.40625,0 c 0.31348,-1.6362 0.975,-2.9539 1.9375,-3.9687 0.96248,-1.0147 2.06225,-1.5323 3.34375,-1.5625 z m 25.78125,0 c 1.14305,0.024 2.07266,0.4452 2.78125,1.25 0.70856,0.8048 1.07265,1.8564 1.09375,3.1562 0.033,0.4904 -0.13702,0.7936 -0.5,0.9375 -0.36301,0.1439 -1.09503,0.2031 -2.25,0.1875 l -6.40625,0 c 0.31348,-1.6362 0.975,-2.9539 1.9375,-3.9687 0.96248,-1.0147 2.06225,-1.5323 3.34375,-1.5625 z m 25.40625,0.3437 c 0.95606,0 1.81741,0.2438 2.625,0.6875 0.80755,0.4436 1.49316,1.0667 2.03125,1.9063 0.46289,0.7325 0.82507,1.5733 1.0625,2.5312 0.23739,0.9579 0.34282,1.9874 0.34375,3.0938 l 0,1.7187 c 0.003,1.4823 -0.0916,2.7168 -0.28125,3.6875 -0.18977,0.9707 -0.49103,1.782 -0.90625,2.4063 -0.56559,0.8662 -1.2882,1.5445 -2.15625,2.0312 -0.86809,0.4868 -1.79769,0.7106 -2.78125,0.7188 -1.70224,-0.016 -3.00152,-0.8354 -3.90625,-2.4688 -0.90474,-1.6335 -1.36676,-3.9787 -1.375,-7.0312 0.007,-3.0047 0.46567,-5.2891 1.375,-6.875 0.90931,-1.5858 2.24543,-2.3935 3.96875,-2.4063 z" />
  </defs>
  <g style="filter:url(#shadowFilter);opacity:0.6" transform="translate(1, 1)">
    <use xlink:href="#radio" />
    <use xlink:href="#reedr" />
  </g>
  <use xlink:href="#radio" style="opacity:1;fill:url(#radioGradient);fill-opacity:1;stroke:none" />
  <use xlink:href="#reedr" style="opacity:1;fill:url(#textGradient);fill-opacity:1;stroke:none" />
</svg>
